<svg width="381" height="149" viewBox="0 0 381 149" fill="none" xmlns="http://www.w3.org/2000/svg">
<path d="M118.329 51V32.568C118.329 31.7147 118.532 30.9467 118.937 30.264C119.364 29.56 119.918 29.0053 120.601 28.6C121.305 28.1733 122.084 27.96 122.937 27.96H136.729C137.582 27.96 138.35 28.1733 139.033 28.6C139.737 29.0053 140.302 29.56 140.729 30.264C141.156 30.9467 141.369 31.7147 141.369 32.568V51H136.697V43.416H122.937V51H118.329ZM122.937 38.808H136.697V32.792C136.697 32.728 136.676 32.6853 136.633 32.664C136.612 32.6213 136.569 32.6 136.505 32.6H123.129C123.065 32.6 123.012 32.6213 122.969 32.664C122.948 32.6853 122.937 32.728 122.937 32.792V38.808ZM145.111 51V27.96H162.647C163.479 27.96 164.236 28.1733 164.919 28.6C165.623 29.0053 166.188 29.56 166.615 30.264C167.042 30.9467 167.255 31.7147 167.255 32.568V36.984C167.255 37.2613 167.234 37.528 167.191 37.784C167.148 38.0187 167.084 38.2533 166.999 38.488C167.34 38.936 167.618 39.4267 167.831 39.96C168.044 40.472 168.151 40.9947 168.151 41.528V46.392C168.151 47.2453 167.938 48.024 167.511 48.728C167.084 49.4107 166.519 49.9653 165.815 50.392C165.132 50.7973 164.364 51 163.511 51H145.111ZM149.911 46.36H163.287C163.351 46.36 163.394 46.3493 163.415 46.328C163.458 46.2853 163.479 46.232 163.479 46.168V41.784C163.479 41.7413 163.458 41.6987 163.415 41.656C163.394 41.6133 163.351 41.592 163.287 41.592H149.911C149.847 41.592 149.794 41.6133 149.751 41.656C149.73 41.6987 149.719 41.7413 149.719 41.784V46.168C149.719 46.232 149.73 46.2853 149.751 46.328C149.794 46.3493 149.847 46.36 149.911 46.36ZM149.911 36.952H162.391C162.434 36.952 162.476 36.9413 162.519 36.92C162.562 36.8773 162.583 36.8347 162.583 36.792V32.792C162.583 32.728 162.562 32.6853 162.519 32.664C162.476 32.6213 162.434 32.6 162.391 32.6H149.911C149.847 32.6 149.794 32.6213 149.751 32.664C149.73 32.6853 149.719 32.728 149.719 32.792V36.792C149.719 36.8347 149.73 36.8773 149.751 36.92C149.794 36.9413 149.847 36.952 149.911 36.952ZM176.184 51C175.331 51 174.552 50.7973 173.848 50.392C173.165 49.9653 172.611 49.4107 172.184 48.728C171.779 48.024 171.576 47.2453 171.576 46.392V32.568C171.576 31.7147 171.779 30.9467 172.184 30.264C172.611 29.56 173.165 29.0053 173.848 28.6C174.552 28.1733 175.331 27.96 176.184 27.96H190.008C190.84 27.96 191.597 28.1733 192.28 28.6C192.984 29.0053 193.549 29.56 193.976 30.264C194.403 30.9467 194.616 31.7147 194.616 32.568V46.392C194.616 47.2453 194.403 48.024 193.976 48.728C193.549 49.4107 192.984 49.9653 192.28 50.392C191.597 50.7973 190.84 51 190.008 51H176.184ZM176.376 46.36H189.752C189.816 46.36 189.859 46.3493 189.88 46.328C189.923 46.2853 189.944 46.232 189.944 46.168V32.792C189.944 32.728 189.923 32.6853 189.88 32.664C189.859 32.6213 189.816 32.6 189.752 32.6H176.376C176.312 32.6 176.259 32.6213 176.216 32.664C176.195 32.6853 176.184 32.728 176.184 32.792V46.168C176.184 46.232 176.195 46.2853 176.216 46.328C176.259 46.3493 176.312 46.36 176.376 46.36ZM202.684 51C201.831 51 201.052 50.7973 200.348 50.392C199.665 49.9653 199.111 49.4107 198.684 48.728C198.279 48.024 198.076 47.2453 198.076 46.392V27.96H202.684V46.168C202.684 46.232 202.695 46.2853 202.716 46.328C202.759 46.3493 202.812 46.36 202.876 46.36H216.252C216.316 46.36 216.359 46.3493 216.38 46.328C216.423 46.2853 216.444 46.232 216.444 46.168V27.96H221.116V46.392C221.116 47.2453 220.903 48.024 220.476 48.728C220.049 49.4107 219.484 49.9653 218.78 50.392C218.097 50.7973 217.34 51 216.508 51H202.684ZM232.704 51V32.6H223.488V27.96H246.528V32.6H237.344V51H232.704Z" fill="#FF0000"/>
<path d="M106.377 77L99.561 68.872H105.609L111.241 75.56V77H106.377ZM88.265 77V53.992H106.665C107.518 53.992 108.286 54.2053 108.969 54.632C109.673 55.0373 110.238 55.592 110.665 56.296C111.092 57 111.305 57.768 111.305 58.6V64.68C111.305 65.512 111.092 66.28 110.665 66.984C110.238 67.6667 109.673 68.2213 108.969 68.648C108.286 69.0533 107.518 69.256 106.665 69.256L92.873 69.288V77H88.265ZM93.065 64.616H106.441C106.505 64.616 106.548 64.6053 106.569 64.584C106.612 64.5413 106.633 64.4987 106.633 64.456V58.792C106.633 58.728 106.612 58.6853 106.569 58.664C106.548 58.6213 106.505 58.6 106.441 58.6H93.065C93.001 58.6 92.9477 58.6213 92.905 58.664C92.8837 58.6853 92.873 58.728 92.873 58.792V64.456C92.873 64.4987 92.8837 64.5413 92.905 64.584C92.9477 64.6053 93.001 64.616 93.065 64.616ZM119.215 77C118.362 77 117.583 76.7973 116.879 76.392C116.197 75.9653 115.642 75.4107 115.215 74.728C114.81 74.024 114.607 73.2453 114.607 72.392V58.568C114.607 57.7147 114.81 56.9467 115.215 56.264C115.642 55.56 116.197 55.0053 116.879 54.6C117.583 54.1733 118.362 53.96 119.215 53.96H133.039C133.871 53.96 134.629 54.1733 135.311 54.6C136.015 55.0053 136.581 55.56 137.007 56.264C137.434 56.9467 137.647 57.7147 137.647 58.568V72.392C137.647 73.2453 137.434 74.024 137.007 74.728C136.581 75.4107 136.015 75.9653 135.311 76.392C134.629 76.7973 133.871 77 133.039 77H119.215ZM119.407 72.36H132.783C132.847 72.36 132.89 72.3493 132.911 72.328C132.954 72.2853 132.975 72.232 132.975 72.168V58.792C132.975 58.728 132.954 58.6853 132.911 58.664C132.89 58.6213 132.847 58.6 132.783 58.6H119.407C119.343 58.6 119.29 58.6213 119.247 58.664C119.226 58.6853 119.215 58.728 119.215 58.792V72.168C119.215 72.232 119.226 72.2853 119.247 72.328C119.29 72.3493 119.343 72.36 119.407 72.36ZM141.267 77V53.96H158.803C159.635 53.96 160.393 54.1733 161.075 54.6C161.779 55.0053 162.345 55.56 162.771 56.264C163.198 56.9467 163.411 57.7147 163.411 58.568V62.984C163.411 63.2613 163.39 63.528 163.347 63.784C163.305 64.0187 163.241 64.2533 163.155 64.488C163.497 64.936 163.774 65.4267 163.987 65.96C164.201 66.472 164.307 66.9947 164.307 67.528V72.392C164.307 73.2453 164.094 74.024 163.667 74.728C163.241 75.4107 162.675 75.9653 161.971 76.392C161.289 76.7973 160.521 77 159.667 77H141.267ZM146.067 72.36H159.443C159.507 72.36 159.55 72.3493 159.571 72.328C159.614 72.2853 159.635 72.232 159.635 72.168V67.784C159.635 67.7413 159.614 67.6987 159.571 67.656C159.55 67.6133 159.507 67.592 159.443 67.592H146.067C146.003 67.592 145.95 67.6133 145.907 67.656C145.886 67.6987 145.875 67.7413 145.875 67.784V72.168C145.875 72.232 145.886 72.2853 145.907 72.328C145.95 72.3493 146.003 72.36 146.067 72.36ZM146.067 62.952H158.547C158.59 62.952 158.633 62.9413 158.675 62.92C158.718 62.8773 158.739 62.8347 158.739 62.792V58.792C158.739 58.728 158.718 58.6853 158.675 58.664C158.633 58.6213 158.59 58.6 158.547 58.6H146.067C146.003 58.6 145.95 58.6213 145.907 58.664C145.886 58.6853 145.875 58.728 145.875 58.792V62.792C145.875 62.8347 145.886 62.8773 145.907 62.92C145.95 62.9413 146.003 62.952 146.067 62.952ZM172.34 77C171.487 77 170.708 76.7973 170.004 76.392C169.322 75.9653 168.767 75.4107 168.34 74.728C167.935 74.024 167.732 73.2453 167.732 72.392V58.568C167.732 57.7147 167.935 56.9467 168.34 56.264C168.767 55.56 169.322 55.0053 170.004 54.6C170.708 54.1733 171.487 53.96 172.34 53.96H186.164C186.996 53.96 187.754 54.1733 188.436 54.6C189.14 55.0053 189.706 55.56 190.132 56.264C190.559 56.9467 190.772 57.7147 190.772 58.568V72.392C190.772 73.2453 190.559 74.024 190.132 74.728C189.706 75.4107 189.14 75.9653 188.436 76.392C187.754 76.7973 186.996 77 186.164 77H172.34ZM172.532 72.36H185.908C185.972 72.36 186.015 72.3493 186.036 72.328C186.079 72.2853 186.1 72.232 186.1 72.168V58.792C186.1 58.728 186.079 58.6853 186.036 58.664C186.015 58.6213 185.972 58.6 185.908 58.6H172.532C172.468 58.6 172.415 58.6213 172.372 58.664C172.351 58.6853 172.34 58.728 172.34 58.792V72.168C172.34 72.232 172.351 72.2853 172.372 72.328C172.415 72.3493 172.468 72.36 172.532 72.36ZM202.36 77V58.6H193.144V53.96H216.184V58.6H207V77H202.36ZM217.937 77V53.96H222.513V77H217.937ZM230.029 77C229.176 77 228.397 76.7973 227.693 76.392C227.011 75.9653 226.456 75.4107 226.029 74.728C225.624 74.024 225.421 73.2453 225.421 72.392V58.568C225.421 57.7147 225.624 56.9467 226.029 56.264C226.456 55.56 227.011 55.0053 227.693 54.6C228.397 54.1733 229.176 53.96 230.029 53.96H248.397V58.6H231.117C230.776 58.6 230.509 58.696 230.317 58.888C230.125 59.0587 230.029 59.3253 230.029 59.688V71.272C230.029 71.6133 230.125 71.88 230.317 72.072C230.509 72.264 230.776 72.36 231.117 72.36H248.397V77H230.029ZM256.246 77C255.414 77 254.646 76.7973 253.942 76.392C253.238 75.9653 252.683 75.4107 252.278 74.728C251.872 74.024 251.67 73.2453 251.67 72.392V70.44H256.278V72.168C256.278 72.232 256.288 72.2853 256.31 72.328C256.352 72.3493 256.395 72.36 256.438 72.36H269.846C269.888 72.36 269.931 72.3493 269.974 72.328C270.016 72.2853 270.038 72.232 270.038 72.168V67.976C270.038 67.9333 270.016 67.9013 269.974 67.88C269.931 67.8373 269.888 67.816 269.846 67.816H256.246C255.414 67.816 254.646 67.6133 253.942 67.208C253.238 66.7813 252.683 66.216 252.278 65.512C251.872 64.808 251.67 64.04 251.67 63.208V58.568C251.67 57.7147 251.872 56.9467 252.278 56.264C252.683 55.56 253.238 55.0053 253.942 54.6C254.646 54.1733 255.414 53.96 256.246 53.96H270.102C270.934 53.96 271.691 54.1733 272.374 54.6C273.078 55.0053 273.643 55.56 274.07 56.264C274.496 56.9467 274.71 57.7147 274.71 58.568V60.52H270.038V58.792C270.038 58.728 270.016 58.6853 269.974 58.664C269.931 58.6213 269.888 58.6 269.846 58.6H256.438C256.395 58.6 256.352 58.6213 256.31 58.664C256.288 58.6853 256.278 58.728 256.278 58.792V62.984C256.278 63.0267 256.288 63.0693 256.31 63.112C256.352 63.1333 256.395 63.144 256.438 63.144H270.102C270.934 63.144 271.691 63.3573 272.374 63.784C273.078 64.1893 273.643 64.744 274.07 65.448C274.496 66.152 274.71 66.92 274.71 67.752V72.392C274.71 73.2453 274.496 74.024 274.07 74.728C273.643 75.4107 273.078 75.9653 272.374 76.392C271.691 76.7973 270.934 77 270.102 77H256.246Z" fill="#FF0000"/>
<path fill-rule="evenodd" clip-rule="evenodd" d="M45.7292 2.923L42.8062 5.846V30.423V55H34.8912H26.9772L26.3392 47.25C24.7182 27.535 22.2542 16.875 18.2092 12.067C12.8942 5.751 7.04022 9.856 3.91122 22.091C-0.829778 40.627 -1.32678 70.938 2.78222 91C5.15222 102.573 7.06522 106.727 11.0602 108.969C13.4952 110.336 13.9452 110.287 16.5102 108.384C21.5752 104.627 24.3192 93.893 26.3872 69.75L26.9652 63H34.8862H42.8062V103.077V143.154L45.7292 146.077L48.6522 149H92.3062H135.96L138.883 146.077L141.806 143.154L141.808 119.327C141.81 83.833 139.635 85.713 180.139 86.186L206.973 86.5L209.889 89.766L212.806 93.032V116.548C212.806 141.53 213.445 145.666 217.656 147.92C219.011 148.645 233.69 149 262.34 149H305.006L308.406 145.6L311.806 142.2V102.6V63H320.155H328.504L329.098 72.756C329.768 83.744 333.239 101.354 335.403 104.736C337.892 108.626 341.534 110.445 344.306 109.182C353.683 104.91 358.226 65.903 353.296 32C350.568 13.24 345.874 6.217 338.646 10.086C334.203 12.464 330.515 26.039 329.225 44.764L328.52 55H320.163H311.806V31.035V7.07L308.702 3.535L305.599 0H177.125H48.6522L45.7292 2.923ZM15.3322 26.098C19.1872 40.713 19.1782 77.473 15.3152 92.304C14.4852 95.49 13.7922 98.413 13.7762 98.799C13.6572 101.538 11.7122 94.826 10.2122 86.5C7.74922 72.825 7.76122 45.382 10.2362 31.5C12.6912 17.729 13.0292 17.37 15.3322 26.098ZM344.952 29.799C347.115 40.503 346.809 80.357 344.488 90.25C343.488 94.513 342.301 98 341.851 98C341.004 98 339.48 90.649 337.809 78.5C335.877 64.464 336.791 42.358 339.995 25.606C340.962 20.552 341.299 19.954 342.36 21.405C343.041 22.336 344.207 26.113 344.952 29.799ZM133.52 27.629C143.573 32.417 149.806 42.51 149.806 54C149.806 61.803 147.399 68.124 142.243 73.858C128.584 89.051 103.182 85.732 94.3092 67.596C85.6842 49.966 94.5732 30.629 113.735 25.338C119.702 23.69 127.034 24.539 133.52 27.629ZM246.52 27.629C264.737 36.305 268.672 61.987 253.835 75.363C241.439 86.538 224.062 86.256 212.497 74.691C206.68 68.874 204.351 62.977 204.327 54C204.311 48.183 204.818 45.461 206.586 41.873C214.159 26.501 231.309 20.384 246.52 27.629ZM149.806 121.5V149H155.306H160.806V121.5V94H155.306H149.806V121.5ZM168.806 121.5V149H176.306H183.806V121.5V94H176.306H168.806V121.5ZM191.806 121.5V149H198.306H204.806V121.5V94H198.306H191.806V121.5Z" fill="#222121"/>
</svg>
